PathFileType	4	(X/Y/Z)	C:/Users/opensim2020/Desktop/walking_exp_matlab/subject06_walking12_straigt_01.trc																																																																																																																																														
DataRate	CameraRate	NumFrames	NumMarkers	Units	OrigDataRate	OrigDataStartFrame	OrigNumFrames																																																																																																																																										
100	100	6	48	mm	100	868	196																																																																																																																																										
Frame#	Time	LFHD			RFHD			LBHD			RBHD			C7			T10			CLAV			STRN			RBAK			LSHO			LUPA			LELB			LFRM			LWRA			LWRB			LFIN			RSHO			RUPA			RELB			RFRM			RWRA			RWRB			RFIN			LASI			RASI			LPSI			RPSI			LTHI			LKNE			LTIB			LANK			LHEE			LTOE			RTHI			RKNE			RTIB			RANK			RHEE			RTOE			*39			*40			*41			*42			*43			*44			*45			*46			*47		
		X1	Y1	Z1	X2	Y2	Z2	X3	Y3	Z3	X4	Y4	Z4	X5	Y5	Z5	X6	Y6	Z6	X7	Y7	Z7	X8	Y8	Z8	X9	Y9	Z9	X10	Y10	Z10	X11	Y11	Z11	X12	Y12	Z12	X13	Y13	Z13	X14	Y14	Z14	X15	Y15	Z15	X16	Y16	Z16	X17	Y17	Z17	X18	Y18	Z18	X19	Y19	Z19	X20	Y20	Z20	X21	Y21	Z21	X22	Y22	Z22	X23	Y23	Z23	X24	Y24	Z24	X25	Y25	Z25	X26	Y26	Z26	X27	Y27	Z27	X28	Y28	Z28	X29	Y29	Z29	X30	Y30	Z30	X31	Y31	Z31	X32	Y32	Z32	X33	Y33	Z33	X34	Y34	Z34	X35	Y35	Z35	X36	Y36	Z36	X37	Y37	Z37	X38	Y38	Z38	X39	Y39	Z39	X40	Y40	Z40	X41	Y41	Z41	X42	Y42	Z42	X43	Y43	Z43	X44	Y44	Z44	X45	Y45	Z45	X46	Y46	Z46	X47	Y47	Z47	X48	Y48	Z48
																																																																																																																																																	
74	0.73	-1063.50598	1657.16309	170.32816	-932.47205	1643.76672	173.80759	-1068.32178	1612.24536	306.31354	-939.24713	1603.86182	308.28818	-1012.45056	1452.2489	320.18393	-1000.27576	1125.05249	370.57434	-1011.87848	1368.1366	214.2198	-1015.72156	1191.672	183.52629	-929.67413	1286.55249	402.78061	-1173.17493	1404.7782	270.31137	-1245.276	1209.86377	316.24094	-1255.21704	1102.28162	348.59146	-1274.69055	951.25568	358.91385	-1225.96021	826.72772	332.26315	-1271.21533	835.29828	387.20651	-1265.85266	746.48761	367.15881	-851.66266	1406.48645	259.68161	-759.07214	1210.68335	294.38242	-744.45209	1090.03723	277.63611	-729.73279	977.0163	238.03259	-767.05487	858.07739	148.6116	-726.22589	844.67017	199.8344	-726.38989	781.37775	144.47107	-1107.62976	959.86267	194.86717	-888.41565	960.56366	204.46387	-1087.27087	989.0083	354.12439	-918.46027	994.25763	353.62729	-1177.47742	653.54205	198.10028	-1149.29529	500.72528	142.72041	-1139.6748	247.45631	164.7267	-1101.18506	74.90834	151.92691	-1049.36621	58.23344	184.37398	-1115.68555	51.5064	9.35546	-849.3761	629.91418	300.37952	-872.86371	505.43893	318.93793	-890.37622	253.51964	412.48322	-941.61792	71.27721	454.35535	-987.61859	50.09454	496.03677	-942.66974	32.85403	302.8895	-1006.06567	1701.18604	268.65778	NaN	NaN	NaN	NaN	NaN	NaN	NaN	NaN	NaN	NaN	NaN	NaN	NaN	NaN	NaN	NaN	NaN	NaN	NaN	NaN	NaN	NaN	NaN	NaN
75	0.74	-1064.51843	1655.53088	160.73105	-933.40991	1642.45654	164.09193	-1069.08472	1610.75146	296.8103	-939.94446	1602.64612	298.58545	-1012.76801	1450.77661	310.63257	-1000.35211	1123.47229	360.724	-1012.2298	1366.69128	204.6983	-1015.72937	1190.30237	173.8217	-929.70026	1285.16528	392.95038	-1173.43909	1403.14441	261.22937	-1245.28894	1208.5874	308.13428	-1254.95923	1101.06799	341.08627	-1274.24792	950.13251	352.29626	-1225.60217	825.52911	325.80576	-1270.46753	834.29309	381.05362	-1265.08911	745.37476	361.40094	-852.00494	1405.29236	250.1281	-759.14355	1209.58398	284.34955	-744.56293	1088.9519	267.47751	-729.89276	976.16095	227.39832	-767.56952	857.68512	137.44875	-726.49933	844.00537	188.34659	-727.09521	781.03571	132.85962	-1107.14014	958.39673	184.57982	-888.0119	959.11981	195.00684	-1087.47302	987.62842	343.84048	-918.70306	993.02234	343.86667	-1177.6842	651.66632	189.58522	-1149.02612	499.19495	133.46988	-1140.276	245.24919	144.21149	-1102.39954	73.26581	122.37972	-1051.08362	55.03751	154.28001	-1115.79053	56.25635	-21.56581	-849.35931	629.03796	293.34448	-872.87036	504.64096	313.09698	-890.67987	253.65125	409.742	-941.86194	72.30882	453.76706	-987.68896	51.73075	495.77264	-942.76184	32.88316	302.9487	-1007.07452	1699.89392	258.92511	NaN	NaN	NaN	NaN	NaN	NaN	NaN	NaN	NaN	NaN	NaN	NaN	NaN	NaN	NaN	NaN	NaN	NaN	NaN	NaN	NaN	NaN	NaN	NaN
76	0.75	-1065.70605	1653.77454	151.11838	-934.48077	1641.146	154.35239	-1069.83264	1609.1322	287.20209	-940.7085	1601.42493	288.84918	-1013.09656	1449.11768	301.09518	-1000.61206	1121.83081	350.81537	-1012.58472	1365.20544	195.09663	-1015.79901	1188.78223	164.03911	-929.83087	1283.64404	383.35553	-1173.79126	1401.41858	252.04715	-1245.08435	1207.0697	299.92001	-1254.52502	1099.80823	333.46838	-1273.85303	948.88831	345.34119	-1225.30444	824.23627	318.78284	-1269.7019	833.15088	374.54037	-1264.51538	744.13354	355.11377	-852.36218	1403.94153	240.49043	-759.27954	1208.2417	274.39557	-744.68713	1087.70715	257.45581	-730.08197	975.08765	216.88065	-768.04706	857.03827	126.56506	-727.03741	843.06616	177.33505	-727.49438	780.33301	121.47978	-1106.81006	956.71265	174.25121	-887.72406	957.57599	185.52869	-1087.8468	986.1601	333.50269	-919.00629	991.75739	334.14322	-1177.92273	649.49988	180.99886	-1148.70593	497.63629	124.19648	-1140.95081	243.57321	124.05405	-1103.72681	72.504	93.61559	-1052.94141	52.61997	124.85249	-1116.1272	62.06884	-51.15533	-849.38501	628.06836	286.28638	-872.63098	503.72034	307.14532	-890.88977	253.8286	406.83801	-942.10864	73.38288	453.4827	-987.96649	53.2658	495.63025	-942.69849	32.885	303.00409	-1008.12915	1698.38806	249.21359	NaN	NaN	NaN	NaN	NaN	NaN	NaN	NaN	NaN	NaN	NaN	NaN	NaN	NaN	NaN	NaN	NaN	NaN	NaN	NaN	NaN	NaN	NaN	NaN
77	0.76	-1066.68958	1652.17859	141.51357	-935.54407	1639.73596	144.554	-1070.6449	1607.42383	277.70999	-941.49048	1600.02966	279.12054	-1013.51709	1447.5437	291.54807	-1001.008	1120.17212	340.85657	-1013.07886	1363.55408	185.40131	-1016.01123	1187.18823	154.23415	-930.07019	1281.89233	373.73642	-1174.22754	1399.62451	242.78221	-1245.18164	1205.54443	291.5372	-1254.52832	1098.43445	325.60779	-1273.46851	947.44421	337.9502	-1224.99988	822.59644	312.10742	-1269.03772	831.82513	367.65152	-1263.93945	742.73419	348.45062	-852.76422	1402.45593	230.74068	-759.53741	1206.75732	264.53674	-744.83789	1086.27966	247.53159	-730.32635	973.80194	206.51241	-768.63654	856.06238	115.91005	-727.3194	842.06073	166.41357	-728.05853	779.51953	110.27905	-1106.51392	954.89893	163.73856	-887.47839	956.02991	175.97046	-1088.26208	984.43799	322.97266	-919.4165	990.34448	324.36847	-1178.15869	647.19885	172.38428	-1148.36633	496.17484	114.45686	-1141.66394	242.31233	104.12801	-1104.96045	72.53828	65.79787	-1053.82874	51.10755	96.26434	-1116.69617	68.65783	-79.5398	-849.41901	626.99438	278.91696	-872.74695	502.7356	300.79495	-890.99963	254.04533	403.95438	-942.32501	74.38934	452.87784	-988.13916	54.81136	495.25381	-943.05994	32.88283	303.33124	-1009.23145	1696.82349	239.54831	NaN	NaN	NaN	NaN	NaN	NaN	NaN	NaN	NaN	NaN	NaN	NaN	NaN	NaN	NaN	NaN	NaN	NaN	NaN	NaN	NaN	NaN	NaN	NaN
78	0.77	-1067.85327	1650.40662	131.98503	-936.44263	1638.21997	134.90662	-1071.40283	1605.59082	268.11987	-942.24036	1598.57227	269.31451	-1013.96155	1445.81543	281.80405	-1001.54401	1118.35791	330.82864	-1013.49811	1361.92139	175.69701	-1016.22656	1185.52014	144.40442	-930.40601	1280.12793	363.92828	-1174.82544	1397.88525	233.45775	-1245.17505	1203.83691	282.9566	-1254.36365	1096.83545	317.397	-1273.22485	945.9054	330.42291	-1225.01282	821.1488	304.18024	-1268.41907	830.32465	360.37506	-1263.54822	741.25165	341.30151	-853.21503	1400.85474	220.9335	-759.82275	1205.15369	254.68852	-744.99152	1084.72107	237.60246	-730.56799	972.39453	196.31013	-769.2027	854.92487	105.42234	-727.5968	840.83075	155.77534	-728.47119	778.40326	99.58554	-1106.2793	952.92627	153.21298	-887.20966	954.42572	166.39873	-1088.76416	982.79944	312.50101	-920.0202	988.86023	314.39322	-1178.47534	644.9129	163.5551	-1148.35681	494.78275	104.56198	-1142.16687	241.27315	84.41985	-1106.01904	73.21081	39.17769	-1055.02673	50.36464	69.02901	-1117.42236	75.42986	-106.2973	-849.46393	625.84979	271.44455	-872.73535	501.67014	294.10071	-891.06702	254.24376	400.7171	-942.52826	75.50001	452.18845	-988.35828	56.42787	494.79675	-943.15533	32.75352	303.28302	-1010.30164	1695.15027	229.94229	NaN	NaN	NaN	NaN	NaN	NaN	NaN	NaN	NaN	NaN	NaN	NaN	NaN	NaN	NaN	NaN	NaN	NaN	NaN	NaN	NaN	NaN	NaN	NaN
79	0.78	-1069.05896	1648.50977	122.45993	-937.71283	1636.83569	125.03426	-1072.24609	1603.74658	258.54767	-943.00098	1596.9613	259.56479	-1014.4801	1444.12476	272.01599	-1002.12268	1116.48206	320.69482	-1014.08136	1360.2511	165.87782	-1016.52515	1183.82751	134.61429	-930.82037	1278.45728	353.97272	-1175.29443	1395.82422	224.00963	-1245.35474	1202.0946	274.11035	-1254.34143	1095.18042	308.96332	-1273.06616	944.28491	322.39258	-1225.00464	819.47919	295.9989	-1267.99512	828.76855	352.66382	-1263.22888	739.66547	333.63535	-853.6355	1399.20264	211.00797	-760.11542	1203.49792	244.93062	-745.20605	1083.09302	227.77408	-730.89984	970.87292	186.25343	-769.78577	853.54688	95.24265	-727.93713	839.47156	145.44043	-728.87823	777.12573	89.13792	-1106.05945	950.93457	142.62845	-886.89154	952.80389	156.76343	-1089.33704	981.06482	301.87723	-920.51611	987.38757	304.66602	-1179.02087	642.74799	154.33846	-1148.54321	493.37183	94.31045	-1143.31506	240.85825	65.01511	-1106.77014	74.16489	13.96876	-1055.98254	50.22794	43.03989	-1117.70886	81.72422	-131.48393	-849.46985	624.6991	263.8526	-872.67883	500.65125	287.47745	-891.11688	254.49907	397.2619	-942.7865	76.6497	451.4682	-988.53961	58.05649	494.46683	-943.22394	32.65514	303.28619	-1011.35052	1693.4707	220.37288	NaN	NaN	NaN	NaN	NaN	NaN	NaN	NaN	NaN	NaN	NaN	NaN	NaN	NaN	NaN	NaN	NaN	NaN	NaN	NaN	NaN	NaN	NaN	NaN
